# This file uses centimeters as units for non-parametric coordinates.

mtllib fountain_base.mtl
g default
v -0.000000 -0.500000 0.000000
v 1.220723 0.500000 0.000000
v 1.160977 0.500000 -0.377224
v 0.987586 0.500000 -0.717523
v 0.717523 0.500000 -0.987586
v 0.377224 0.500000 -1.160977
v -0.000000 0.500000 -1.220724
v -0.377224 0.500000 -1.160977
v -0.717523 0.500000 -0.987586
v -0.987586 0.500000 -0.717523
v -1.160977 0.500000 -0.377224
v -1.220724 0.500000 0.000000
v -1.160977 0.500000 0.377224
v -0.987586 0.500000 0.717523
v -0.717523 0.500000 0.987586
v -0.377224 0.500000 1.160977
v 0.000000 0.500000 1.220724
v 0.377224 0.500000 1.160978
v 0.717524 0.500000 0.987587
v 0.987587 0.500000 0.717524
v 1.160978 0.500000 0.377225
v 1.783404 0.500000 0.000000
v 1.696118 0.500000 -0.551102
v 1.442804 0.500000 -1.048258
v 1.048258 0.500000 -1.442804
v 0.551102 0.500000 -1.696118
v -0.000000 0.500000 -1.783404
v -0.551102 0.500000 -1.696118
v -1.048259 0.500000 -1.442804
v -1.442804 0.500000 -1.048259
v -1.696118 0.500000 -0.551102
v -1.783404 0.500000 0.000000
v -1.696118 0.500000 0.551102
v -1.442804 0.500000 1.048259
v -1.048259 0.500000 1.442805
v -0.551102 0.500000 1.696119
v -0.000000 0.500000 1.783405
v 0.551102 0.500000 1.696119
v 1.048259 0.500000 1.442805
v 1.442805 0.500000 1.048259
v 1.696119 0.500000 0.551102
v 2.441447 -0.500000 -0.000000
v 2.321954 -0.500000 -0.754449
v 1.975172 -0.500000 -1.435047
v 1.435046 -0.500000 -1.975172
v 0.754448 -0.500000 -2.321954
v -0.000000 -0.500000 -2.441447
v -0.754449 -0.500000 -2.321954
v -1.435047 -0.500000 -1.975172
v -1.975172 -0.500000 -1.435047
v -2.321955 -0.500000 -0.754449
v -2.441447 -0.500000 -0.000000
v -2.321955 -0.500000 0.754449
v -1.975173 -0.500000 1.435047
v -1.435047 -0.500000 1.975173
v -0.754449 -0.500000 2.321955
v 0.000000 -0.500000 2.441448
v 0.754449 -0.500000 2.321955
v 1.435047 -0.500000 1.975173
v 1.975173 -0.500000 1.435047
v 2.321955 -0.500000 0.754449
vt 0.508347 1.056733
vt 0.164441 0.932560
vt 0.172354 0.879803
vt 0.187234 0.879803
vt 0.211073 0.854917
vt 0.245862 0.840982
vt 0.265720 0.832023
vt 0.309467 0.811119
vt 0.359187 0.808133
vt 0.408907 0.808133
vt 0.458627 0.808133
vt 0.508347 0.808133
vt 0.558067 0.808133
vt 0.607787 0.808133
vt 0.657507 0.808133
vt 0.708223 0.826050
vt 0.736043 0.834014
vt 0.775809 0.841977
vt 0.792681 0.860890
vt 0.813533 0.878807
vt 0.823174 0.896424
vt 0.844290 0.932560
vt 0.084865 0.803053
vt 0.087725 0.623311
vt 0.118044 0.592303
vt 0.159702 0.565308
vt 0.213126 0.531659
vt 0.263306 0.496109
vt 0.304759 0.468074
vt 0.359607 0.463910
vt 0.414659 0.467139
vt 0.453462 0.471727
vt 0.511444 0.469661
vt 0.561130 0.470699
vt 0.611919 0.474826
vt 0.667837 0.466562
vt 0.732019 0.494453
vt 0.764178 0.519245
vt 0.806667 0.559533
vt 0.856387 0.586391
vt 0.912305 0.618415
vt 0.920705 0.683494
vt 0.913609 0.826050
vt 0.016989 0.721526
vt 0.000810 0.369387
vt 0.095249 0.255604
vt 0.128706 0.228821
vt 0.173503 0.158937
vt 0.251721 0.088663
vt 0.312421 0.018487
vt 0.389192 0.013843
vt 0.419531 0.016000
vt 0.454412 0.009381
vt 0.516293 0.010678
vt 0.568045 0.016805
vt 0.640844 0.010000
vt 0.688284 0.019119
vt 0.710538 0.049305
vt 0.756615 0.089126
vt 0.804325 0.146448
vt 0.847428 0.197455
vt 0.910089 0.256185
vt 0.996997 0.354658
vt 0.994560 0.702969
vt 0.509423 -0.030509
vn 0.000000 1.000000 -0.000000
vn -0.633703 0.773576 0.000001
vn -0.602688 0.773576 0.195825
vn -0.512677 0.773576 0.372481
vn -0.372481 0.773576 0.512677
vn -0.195825 0.773576 0.602687
vn -0.000000 0.773576 0.633703
vn 0.195825 0.773576 0.602687
vn 0.372481 0.773576 0.512677
vn 0.512676 0.773576 0.372481
vn 0.602687 0.773576 0.195825
vn 0.633703 0.773576 0.000000
vn 0.602687 0.773576 -0.195825
vn 0.512677 0.773576 -0.372481
vn 0.372481 0.773576 -0.512676
vn 0.195825 0.773576 -0.602687
vn 0.000000 0.773576 -0.633703
vn -0.195825 0.773576 -0.602687
vn -0.372481 0.773576 -0.512677
vn -0.512676 0.773576 -0.372481
vn -0.602688 0.773576 -0.195824
vn 0.000000 1.000000 0.000000
vn 0.000000 1.000000 0.000000
vn 0.000000 1.000000 0.000000
vn 0.000000 1.000000 0.000000
vn 0.000000 1.000000 0.000000
vn 0.000000 1.000000 0.000000
vn 0.000000 1.000000 -0.000000
vn 0.000000 1.000000 -0.000000
vn 0.000000 1.000000 -0.000000
vn 0.000000 1.000000 -0.000000
vn 0.000000 1.000000 0.000000
vn 0.000000 1.000000 0.000000
vn 0.000000 1.000000 0.000000
vn 0.000000 1.000000 0.000000
vn 0.000000 1.000000 0.000000
vn 0.000000 1.000000 0.000000
vn 0.000000 1.000000 0.000000
vn 0.000000 1.000000 0.000000
vn 0.000000 1.000000 0.000000
vn 0.000000 1.000000 0.000000
vn 0.000000 1.000000 0.000000
vn 0.000000 1.000000 0.000000
vn 0.000000 1.000000 0.000000
vn 0.000000 1.000000 0.000000
vn 0.000000 1.000000 0.000000
vn 0.000000 1.000000 0.000000
vn 0.000000 1.000000 -0.000000
vn 0.000000 1.000000 -0.000000
vn 0.000000 1.000000 -0.000000
vn 0.000000 1.000000 -0.000000
vn 0.000000 1.000000 -0.000000
vn 0.000000 1.000000 -0.000000
vn 0.000000 1.000000 0.000000
vn 0.000000 1.000000 0.000000
vn 0.000000 1.000000 0.000000
vn 0.000000 1.000000 0.000000
vn 0.000000 1.000000 0.000000
vn 0.000000 1.000000 0.000000
vn 0.000000 1.000000 0.000000
vn 0.000000 1.000000 0.000000
vn 0.794475 0.549703 -0.258140
vn 0.835360 0.549703 -0.000001
vn 0.835360 0.549703 -0.000001
vn 0.794475 0.549703 -0.258140
vn 0.675821 0.549703 -0.491012
vn 0.675820 0.549703 -0.491012
vn 0.491012 0.549703 -0.675821
vn 0.491012 0.549703 -0.675821
vn 0.258141 0.549703 -0.794475
vn 0.258141 0.549703 -0.794475
vn 0.000000 0.549703 -0.835360
vn 0.000000 0.549703 -0.835360
vn -0.258140 0.549703 -0.794475
vn -0.258140 0.549703 -0.794475
vn -0.491012 0.549703 -0.675821
vn -0.491012 0.549703 -0.675820
vn -0.675820 0.549703 -0.491012
vn -0.675820 0.549703 -0.491012
vn -0.794475 0.549703 -0.258141
vn -0.794475 0.549703 -0.258141
vn -0.835360 0.549703 0.000000
vn -0.835360 0.549703 -0.000000
vn -0.794475 0.549703 0.258140
vn -0.794475 0.549703 0.258140
vn -0.675821 0.549703 0.491012
vn -0.675821 0.549703 0.491012
vn -0.491013 0.549703 0.675820
vn -0.491012 0.549703 0.675820
vn -0.258141 0.549703 0.794475
vn -0.258141 0.549703 0.794475
vn -0.000000 0.549703 0.835360
vn -0.000000 0.549703 0.835360
vn 0.258140 0.549703 0.794475
vn 0.258140 0.549703 0.794475
vn 0.491012 0.549703 0.675821
vn 0.491012 0.549703 0.675820
vn 0.675820 0.549703 0.491012
vn 0.675820 0.549703 0.491012
vn 0.794475 0.549703 0.258140
vn 0.794475 0.549703 0.258140
vn 0.000000 -1.000000 0.000000
vn 0.000000 -1.000000 0.000000
vn 0.000000 -1.000000 0.000000
vn 0.000000 -1.000000 0.000000
vn 0.000000 -1.000000 0.000000
vn 0.000000 -1.000000 0.000000
vn 0.000000 -1.000000 0.000000
vn 0.000000 -1.000000 0.000000
vn 0.000000 -1.000000 0.000000
vn 0.000000 -1.000000 0.000000
vn 0.000000 -1.000000 0.000000
vn 0.000000 -1.000000 0.000000
vn 0.000000 -1.000000 0.000000
vn 0.000000 -1.000000 0.000000
vn 0.000000 -1.000000 0.000000
vn 0.000000 -1.000000 0.000000
vn 0.000000 -1.000000 0.000000
vn 0.000000 -1.000000 0.000000
vn 0.000000 -1.000000 0.000000
vn 0.000000 -1.000000 0.000000
vn 0.000000 -1.000000 0.000000
s 1
g pPipe1
usemtl stairs_COLOR_1SG
f 1/1/1 2/2/2 3/3/3
f 1/1/1 3/3/3 4/4/4
f 1/1/1 4/4/4 5/5/5
f 1/1/1 5/5/5 6/6/6
f 1/1/1 6/6/6 7/7/7
f 1/1/1 7/7/7 8/8/8
f 1/1/1 8/8/8 9/9/9
f 1/1/1 9/9/9 10/10/10
f 1/1/1 10/10/10 11/11/11
f 1/1/1 11/11/11 12/12/12
f 1/1/1 12/12/12 13/13/13
f 1/1/1 13/13/13 14/14/14
f 1/1/1 14/14/14 15/15/15
f 1/1/1 15/15/15 16/16/16
f 1/1/1 16/16/16 17/17/17
f 1/1/1 17/17/17 18/18/18
f 1/1/1 18/18/18 19/19/19
f 1/1/1 19/19/19 20/20/20
f 1/1/1 20/20/20 21/21/21
f 1/1/1 21/21/21 2/22/2
s 2
f 3/3/22 2/2/23 22/23/24 23/24/25
f 4/4/26 3/3/22 23/24/25 24/25/27
f 5/5/28 4/4/26 24/25/27 25/26/29
f 6/6/30 5/5/28 25/26/29 26/27/31
f 7/7/32 6/6/30 26/27/31 27/28/33
f 8/8/34 7/7/32 27/28/33 28/29/35
f 9/9/36 8/8/34 28/29/35 29/30/37
f 10/10/38 9/9/36 29/30/37 30/31/39
f 11/11/40 10/10/38 30/31/39 31/32/41
f 12/12/42 11/11/40 31/32/41 32/33/43
f 13/13/44 12/12/42 32/33/43 33/34/45
f 14/14/46 13/13/44 33/34/45 34/35/47
f 15/15/48 14/14/46 34/35/47 35/36/49
f 16/16/50 15/15/48 35/36/49 36/37/51
f 17/17/52 16/16/50 36/37/51 37/38/53
f 18/18/54 17/17/52 37/38/53 38/39/55
f 19/19/56 18/18/54 38/39/55 39/40/57
f 20/20/58 19/19/56 39/40/57 40/41/59
f 21/21/60 20/20/58 40/41/59 41/42/61
f 2/22/23 21/21/60 41/42/61 22/43/24
s 3
f 23/24/62 22/23/63 42/44/64 43/45/65
f 24/25/66 23/24/62 43/45/65 44/46/67
f 25/26/68 24/25/66 44/46/67 45/47/69
f 26/27/70 25/26/68 45/47/69 46/48/71
f 27/28/72 26/27/70 46/48/71 47/49/73
f 28/29/74 27/28/72 47/49/73 48/50/75
f 29/30/76 28/29/74 48/50/75 49/51/77
f 30/31/78 29/30/76 49/51/77 50/52/79
f 31/32/80 30/31/78 50/52/79 51/53/81
f 32/33/82 31/32/80 51/53/81 52/54/83
f 33/34/84 32/33/82 52/54/83 53/55/85
f 34/35/86 33/34/84 53/55/85 54/56/87
f 35/36/88 34/35/86 54/56/87 55/57/89
f 36/37/90 35/36/88 55/57/89 56/58/91
f 37/38/92 36/37/90 56/58/91 57/59/93
f 38/39/94 37/38/92 57/59/93 58/60/95
f 39/40/96 38/39/94 58/60/95 59/61/97
f 40/41/98 39/40/96 59/61/97 60/62/99
f 41/42/100 40/41/98 60/62/99 61/63/101
f 22/43/63 41/42/100 61/63/101 42/64/64
s 4
f 43/45/102 42/44/103 1/65/104
f 44/46/105 43/45/102 1/65/104
f 45/47/106 44/46/105 1/65/104
f 46/48/107 45/47/106 1/65/104
f 47/49/108 46/48/107 1/65/104
f 48/50/109 47/49/108 1/65/104
f 49/51/110 48/50/109 1/65/104
f 50/52/111 49/51/110 1/65/104
f 51/53/112 50/52/111 1/65/104
f 52/54/113 51/53/112 1/65/104
f 53/55/114 52/54/113 1/65/104
f 54/56/115 53/55/114 1/65/104
f 55/57/116 54/56/115 1/65/104
f 56/58/117 55/57/116 1/65/104
f 57/59/118 56/58/117 1/65/104
f 58/60/119 57/59/118 1/65/104
f 59/61/120 58/60/119 1/65/104
f 60/62/121 59/61/120 1/65/104
f 61/63/122 60/62/121 1/65/104
f 42/64/103 61/63/122 1/65/104
