# This file uses centimeters as units for non-parametric coordinates.

mtllib house_top.mtl
g default
v 1.996975 2.015394 -1.989966
v -1.989966 2.015394 -1.996975
v -1.996975 2.015394 1.989966
v 1.989966 2.015394 1.996975
v 0.000000 3.760068 0.000000
vt 0.500000 0.000000
vt 0.250000 0.250000
vt 0.500000 0.500000
vt 0.750000 0.250000
vt 0.250000 0.500000
vt 0.375000 0.500000
vt 0.500000 0.500000
vt 0.625000 0.500000
vt 0.750000 0.500000
vt 0.500000 1.000000
vn -0.000000 -1.000000 0.000000
vn -0.000000 -1.000000 0.000000
vn -0.000000 -1.000000 0.000000
vn -0.000000 -1.000000 0.000000
vn 0.001158 0.752505 -0.658586
vn 0.001158 0.752505 -0.658586
vn 0.001158 0.752505 -0.658586
vn -0.658586 0.752505 -0.001158
vn -0.658586 0.752505 -0.001158
vn -0.658586 0.752505 -0.001158
vn -0.001158 0.752505 0.658586
vn -0.001158 0.752505 0.658586
vn -0.001158 0.752505 0.658586
vn 0.658586 0.752505 0.001158
vn 0.658586 0.752505 0.001158
vn 0.658586 0.752505 0.001158
s off
g pPyramid1
usemtl initialShadingGroup
f 1/1/1 4/4/2 3/3/3 2/2/4
f 1/5/5 2/6/6 5/10/7
f 2/6/8 3/7/9 5/10/10
f 3/7/11 4/8/12 5/10/13
f 4/8/14 1/9/15 5/10/16
