# This file uses centimeters as units for non-parametric coordinates.

mtllib house_top.mtl
g default
v 3.152299 3.790615 -2.973286
v -3.067844 3.790615 -2.903189
v -3.758971 3.507873 -2.895400
v 3.172141 3.629037 -1.212680
v -0.091498 5.436325 0.092153
v 3.218436 3.790615 2.895400
v -3.001707 3.629037 2.965498
v -3.692834 3.507873 2.973286
vt 0.000000 0.000000
vt 0.900000 0.000000
vt 1.000000 0.000000
vt 0.034130 0.431970
vt 0.494989 0.566215
vt -0.081912 1.204781
vt 0.900000 1.000000
vt 1.000000 1.000000
vn 0.122872 0.922724 -0.365352
vn -0.285411 0.953401 -0.097810
vn -0.019658 0.999297 0.031924
vn 0.178102 0.984010 -0.001868
vn -0.228306 0.964766 0.130775
vn 0.205463 0.930382 0.303601
vn -0.441977 0.896658 0.025722
vn -0.441977 0.896658 0.025722
s 1
g pPlane1
usemtl roof_1SG
f 1/1/1 2/2/2 5/5/3 4/4/4
f 4/4/4 5/5/3 7/7/5 6/6/6
f 3/3/7 8/8/8 7/7/5 5/5/3 2/2/2
