# This file uses centimeters as units for non-parametric coordinates.

mtllib house_bottom.mtl
g default
v -2.777512 -3.766555 2.364418
v 2.777512 -3.766555 2.364418
v -2.777512 3.766555 2.364418
v 2.777512 3.766555 2.364418
v -2.777512 3.766555 -2.364418
v 2.777512 3.766555 -2.364418
v -2.777512 -3.766555 -2.364418
v 2.777512 -3.766555 -2.364418
vt 0.349871 0.245910
vt 0.666307 0.257211
vt 0.659011 0.479719
vt 0.348619 0.482312
vt 0.660595 0.739449
vt 0.350755 0.726293
vt 0.662744 0.996060
vt 0.347390 1.007591
vt 0.666307 1.257211
vt 0.349871 1.245910
vt 0.912744 0.246060
vt 0.910595 0.489449
vt 0.097390 0.257592
vt 0.100755 0.476293
vt 0.660595 0.739449
vt 0.350755 0.726293
vt 0.659011 0.479719
vt 0.348619 0.482312
vn 0.000000 0.000000 1.000000
vn 0.000000 0.000000 1.000000
vn 0.000000 0.000000 1.000000
vn 0.000000 0.000000 1.000000
vn 0.000000 1.000000 0.000000
vn 0.000000 1.000000 0.000000
vn 0.000000 1.000000 0.000000
vn 0.000000 1.000000 0.000000
vn 0.000000 0.000000 -1.000000
vn 0.000000 0.000000 -1.000000
vn 0.000000 0.000000 -1.000000
vn 0.000000 0.000000 -1.000000
vn 0.000000 -1.000000 0.000000
vn 0.000000 -1.000000 0.000000
vn 0.000000 -1.000000 0.000000
vn 0.000000 -1.000000 0.000000
vn 1.000000 0.000000 0.000000
vn 1.000000 0.000000 0.000000
vn 1.000000 0.000000 0.000000
vn 1.000000 0.000000 0.000000
vn -1.000000 0.000000 0.000000
vn -1.000000 0.000000 0.000000
vn -1.000000 0.000000 0.000000
vn -1.000000 0.000000 0.000000
s off
g house_bottom:pCube1
usemtl house_bottom:house_map_1SG
f 1/1/1 2/2/2 4/3/3 3/18/4
f 3/4/5 4/17/6 6/5/7 5/16/8
f 5/6/9 6/15/10 8/7/11 7/8/12
f 7/8/13 8/7/14 2/9/15 1/10/16
f 2/2/17 8/11/18 6/12/19 4/3/20
f 7/13/21 1/1/22 3/18/23 5/14/24
